<svg id="Ebene_1" data-name="Ebene 1" xmlns="http://www.w3.org/2000/svg" viewBox="0 0 2826.59 3632.03"><line x1="408.07" y1="94.44" x2="408.07" style="fill:#f4951a;stroke:#1d1d1b;stroke-miterlimit:10"/><path d="M-94.11,103.11" transform="translate(-586.7 213.56)" style="fill:#f4951a;stroke:#1d1d1b;stroke-miterlimit:10"/><path d="M2440.31,3477.84" transform="translate(-586.7 213.56)" style="fill:#f0a526;stroke:#1d1d1b;stroke-miterlimit:10"/><path d="M2440.31,2098.71" transform="translate(-586.7 213.56)" style="fill:#f0a526;stroke:#1d1d1b;stroke-miterlimit:10"/><path d="M1605,2893.56,2202.33,2521a96.34,96.34,0,0,0,45.34-81.73V2195a96.32,96.32,0,0,1,96.32-96.32h0a96.31,96.31,0,0,1,96.32,96.32v1126.5c0,71.71-75.56,118.28-139.62,86l-688-346.25C1545.58,3027.54,1541.27,2933.33,1605,2893.56Z" transform="translate(-586.7 213.56)" style="fill:#f0a526;stroke:#1d1d1b;stroke-miterlimit:10"/><path d="M940.31,3120.24" transform="translate(-586.7 213.56)" style="fill:#f0a526;stroke:#1d1d1b;stroke-miterlimit:10"/><path d="M2134.67,2430.67" transform="translate(-586.7 213.56)" style="fill:#f0a526;stroke:#1d1d1b;stroke-miterlimit:10"/><path d="M1028.67,2104.73l621.27,331a96.32,96.32,0,0,0,93.45-1.59L1954.94,2312a96.32,96.32,0,0,1,131.57,35.26h0a96.31,96.31,0,0,1-35.25,131.57l-975.58,563.26c-62.11,35.85-140.21-6.3-144.32-77.9l-44.14-768.93C882.92,2120.23,962.35,2069.39,1028.67,2104.73Z" transform="translate(-586.7 213.56)" style="fill:#f0a526;stroke:#1d1d1b;stroke-miterlimit:10"/><path d="M500,1642.4" transform="translate(-586.7 213.56)" style="fill:#f0a526;stroke:#1d1d1b;stroke-miterlimit:10"/><path d="M1694.36,2332" transform="translate(-586.7 213.56)" style="fill:#f0a526;stroke:#1d1d1b;stroke-miterlimit:10"/><path d="M1423.64,1211.17l24,703.54a96.33,96.33,0,0,0,48.11,80.13L1707.27,2117a96.32,96.32,0,0,1,35.25,131.57h0A96.32,96.32,0,0,1,1611,2283.81L635.37,1720.56c-62.11-35.86-64.65-124.58-4.71-163.94l643.85-422.69C1337.33,1092.69,1421.08,1136.07,1423.64,1211.17Z" transform="translate(-586.7 213.56)" style="fill:#f0a526;stroke:#1d1d1b;stroke-miterlimit:10"/><path d="M1559.69,522.16" transform="translate(-586.7 213.56)" style="fill:#f0a526;stroke:#1d1d1b;stroke-miterlimit:10"/><path d="M1559.69,1901.29" transform="translate(-586.7 213.56)" style="fill:#f0a526;stroke:#1d1d1b;stroke-miterlimit:10"/><path d="M2395,1106.44,1797.67,1479a96.34,96.34,0,0,0-45.34,81.73V1805a96.32,96.32,0,0,1-96.32,96.32h0a96.31,96.31,0,0,1-96.32-96.32V678.47c0-71.71,75.56-118.28,139.62-86l688,346.25C2454.42,972.46,2458.73,1066.67,2395,1106.44Z" transform="translate(-586.7 213.56)" style="fill:#f0a526;stroke:#1d1d1b;stroke-miterlimit:10"/><path d="M3059.69,879.76" transform="translate(-586.7 213.56)" style="fill:#f0a526;stroke:#1d1d1b;stroke-miterlimit:10"/><path d="M1865.33,1569.32" transform="translate(-586.7 213.56)" style="fill:#f0a526;stroke:#1d1d1b;stroke-miterlimit:10"/><path d="M2971.33,1895.27l-621.27-331a96.32,96.32,0,0,0-93.45,1.59L2045.06,1688a96.32,96.32,0,0,1-131.57-35.26h0a96.32,96.32,0,0,1,35.25-131.58l975.58-563.25c62.11-35.85,140.21,6.3,144.32,77.9l44.14,768.93C3117.08,1879.77,3037.65,1930.61,2971.33,1895.27Z" transform="translate(-586.7 213.56)" style="fill:#f0a526;stroke:#1d1d1b;stroke-miterlimit:10"/><path d="M3500,2357.6" transform="translate(-586.7 213.56)" style="fill:#f0a526;stroke:#1d1d1b;stroke-miterlimit:10"/><path d="M2305.64,1668" transform="translate(-586.7 213.56)" style="fill:#f0a526;stroke:#1d1d1b;stroke-miterlimit:10"/><path d="M2576.36,2788.83l-24-703.54a96.3,96.3,0,0,0-48.1-80.13L2292.73,1883a96.31,96.31,0,0,1-35.25-131.57h0a96.31,96.31,0,0,1,131.57-35.26l975.58,563.25c62.11,35.86,64.65,124.58,4.71,163.94l-643.85,422.69C2662.67,2907.31,2578.92,2863.93,2576.36,2788.83Z" transform="translate(-586.7 213.56)" style="fill:#f0a526;stroke:#1d1d1b;stroke-miterlimit:10"/></svg>